<svg xmlns="http://www.w3.org/2000/svg" width="210.32" height="443.63" viewBox="0 0 210.32 443.63"><defs><style>.cls-1{fill:#282828;}</style></defs><title>Asset 5</title><g id="Layer_2" data-name="Layer 2"><g id="svg2"><g id="layer1"><g id="g4305"><g id="g4345"><g id="text2994"><g id="g3830"><g id="g3838"><g id="g3785"><path id="rect3010" class="cls-1" d="M30,0A30,30,0,0,0,0,30L.32,413.63a30,30,0,0,0,30,30h150a30,30,0,0,0,30-30L210,30A30,30,0,0,0,180,0ZM89.28,20h.22a4.17,4.17,0,0,1,.5,0h30a5,5,0,1,1,.14,10H90a5,5,0,1,1-.72-10ZM10,50H200l.32,338.63h-190Zm95.32,348.63a15,15,0,1,1-15,15A15,15,0,0,1,105.32,398.63Z"/></g></g></g></g></g></g></g></g></g></svg>
