<svg xmlns="http://www.w3.org/2000/svg" xmlns:xlink="http://www.w3.org/1999/xlink" width="172.68" height="166.48" viewBox="0 0 172.68 166.48"><defs><style>.cls-1{fill:none;}.cls-2{clip-path:url(#clip-path);}.cls-3{fill:#1d1d1b;}.cls-4{fill:#fff;}</style><clipPath id="clip-path" transform="translate(-0.19)"><rect class="cls-1" y="0.11" width="172.68" height="166.38"/></clipPath></defs><title>Asset 1</title><g id="Layer_2" data-name="Layer 2"><g id="Layer_1-2" data-name="Layer 1"><g class="cls-2"><path class="cls-3" d="M171.15,60.72A74,74,0,0,0,160.1,32.41,57.27,57.27,0,0,0,136,12.13C128,8.49,106.83,0,83.13,0c-25.71,0-46.5,9.75-61.8,29C10.53,42.58,3.31,59,1,75.12-1.55,93,1.94,109.51,11.09,123,21.16,137.81,37.16,150.44,55,157.64a62.7,62.7,0,0,0,18,6.24A79.62,79.62,0,0,0,81.08,165a113.38,113.38,0,0,0,18.31,1.53h1.53a79,79,0,0,0,54.57-23.37c5.32-5.38,10.68-17.83,14-32.48,3.86-17.09,4.45-34.81,1.67-49.9" transform="translate(-0.19)"/><path class="cls-4" d="M124.91,129.46l-1.67-13.26h0a0,0,0,0,0,0,0,.23.23,0,0,0,0-.11h0a.54.54,0,0,0-.07-.13h0L99,84.72l22.28-14.8h0a.52.52,0,0,0,.11-.1s0,0,0,0l0,0,0-.06v0a.33.33,0,0,0,0-.14v0a.62.62,0,0,0,0-.13v0L120,60.16a.64.64,0,0,0-.27-.41L66.5,25l0,0-.09,0h0l-.09,0h-.19l-.13,0h0L56.81,29a.6.6,0,0,0-.35.53L53.62,132.41h0a.47.47,0,0,0,0,.16v0a.14.14,0,0,0,0,.06s0,0,0,0a.16.16,0,0,0,0,.07l.06.07.06.06L54,133l0,0,9.21,3.59a.54.54,0,0,0,.22,0,.52.52,0,0,0,.24-.05l9.11-4.07,0,0,.07,0,.07-.07,0,0,0-.1,0,0v0a.06.06,0,0,0,0,0,.5.5,0,0,0,0-.12v0l1-31.17,9.71-6.36,25.71,32.31a.58.58,0,0,0,.21.17h0l.05,0,12.11,4.4h0l2.39.86h0l.07,0h.19l.08,0h0a.61.61,0,0,0,.42-.57.41.41,0,0,0,0-.16ZM122.13,117l1.47,11.65-.46.1-7.86-10.39ZM98.21,83.76,94,78.36l12.44-8.09a.58.58,0,0,0,.27-.5.6.6,0,0,0-.27-.5L73.53,47.74l0-7.42,46.22,29.11Zm-23.4-4.4h0l-1.89,1.2.59-31.4L97.35,64.75ZM120.1,68.2,73.29,38.72a.61.61,0,0,0-.6,0,.6.6,0,0,0-.32.53l-.05,8.82-.63,33.49L65.2,85.75l1.54-59.17,52.14,34ZM57.65,30l7.89-3.53L64,86.86a.63.63,0,0,0,.31.54.59.59,0,0,0,.29.07.63.63,0,0,0,.33-.09l7.72-5h0l2.81-2,23-14.9,6.57,4.3L92.81,77.7a.64.64,0,0,0-.27.52.59.59,0,0,0,.13.37l4.93,6.35,24,30.94-7.11,1.41-22-28.07a.37.37,0,0,0-.07-.12L92,88.46a.38.38,0,0,0-.09-.09l-4.75-6.3a.61.61,0,0,0-.81-.14L64,96.42h0l0,0a.27.27,0,0,0-.08.07l0,0,0,.07s0,0,0,0a.36.36,0,0,0,0,.09s0,0,0,0,0,.08,0,.12h0l-1,31.09-7.88,3.49ZM72,131.08l-8-3.05,1-30.25,8.08,3.1Zm-8.55,4.28-7.63-3,7.5-3.32L71,132Zm21.06-42.1a.6.6,0,0,0-.8-.13L73.5,99.79l-7.86-3L86.5,83.24l4.44,5.89,0,.06,0,0L113.5,118,110,125.26Zm29.84,25.81,7.86,10.38-.29.58-11-4Z" transform="translate(-0.19)"/></g></g></g></svg>
