<svg xmlns="http://www.w3.org/2000/svg" xmlns:xlink="http://www.w3.org/1999/xlink" width="424.86" height="409.59" viewBox="0 0 424.86 409.59"><defs><style>.cls-1{fill:none;}.cls-2{clip-path:url(#clip-path);}.cls-3{fill:#0021f5;}</style><clipPath id="clip-path" transform="translate(-0.51)"><rect class="cls-1" y="0.26" width="424.85" height="409.33"/></clipPath></defs><title>Asset 2</title><g id="Layer_2" data-name="Layer 2"><g id="Layer_1-2" data-name="Layer 1"><g id="Layer_2-2" data-name="Layer 2"><g id="Layer_1-2-2" data-name="Layer 1-2"><g class="cls-2"><path class="cls-3" d="M421.08,149.38C416.14,122.57,407,99.15,393.9,79.75a140.93,140.93,0,0,0-59.25-49.9C314.94,20.88,262.82,0,204.51,0c-63.24,0-114.39,24-152,71.33-26.57,33.42-44.34,73.73-50,113.49-6.27,43.89,2.3,84.6,24.8,117.73,24.79,36.49,64.14,67.58,108,85.29a154,154,0,0,0,44.24,15.34,200.82,200.82,0,0,0,20,2.65,280.28,280.28,0,0,0,45,3.76h3.78a194.37,194.37,0,0,0,134.23-57.48c13.1-13.26,26.29-43.88,34.43-79.93,9.49-42,11-85.64,4.12-122.77m-6.6,122.21c-8,35.61-21,65.77-33.75,78.71A191.9,191.9,0,0,1,248.26,407a275.54,275.54,0,0,1-48.42-3.71h-.11a195.4,195.4,0,0,1-19.73-2.6,151.21,151.21,0,0,1-43.58-15.12l-.11-.05C92.85,368,53.89,337.23,29.37,301.13,7.23,268.53-1.21,228.43,5,185.18,10.6,145.85,28.17,106,54.47,72.9c37.13-46.69,87.6-70.37,150-70.37,57.82,0,109.54,20.72,129.08,29.63a138.35,138.35,0,0,1,58.21,49c12.9,19.11,21.92,42.22,26.79,68.68,6.78,36.79,5.32,80-4.11,121.75" transform="translate(-0.51)"/><path class="cls-3" d="M307.31,318.51l-4.1-32.62h0v-.06a2,2,0,0,0-.08-.26h0a1.34,1.34,0,0,0-.17-.31h0l-59.48-76.75L298.26,172h0a1,1,0,0,0,.28-.25l.06-.08.09-.1.07-.14v-.08a1.61,1.61,0,0,0,.1-.36v-.06a1.82,1.82,0,0,0,0-.33h0L295.29,148a1.43,1.43,0,0,0-.65-1l-131-85.54h-.06l-.23-.11h-.79a1.58,1.58,0,0,0-.31.09h0l-22.41,10a1.49,1.49,0,0,0-.88,1.31l-7,253.06h0a2.67,2.67,0,0,0,0,.4v.07a.18.18,0,0,0,0,.15l.07.11a1,1,0,0,0,.11.17l.16.18a.44.44,0,0,0,.15.12l.21.13.11.06,22.71,8.8a1.44,1.44,0,0,0,.54.1,1.38,1.38,0,0,0,.6-.13l22.42-10,.12-.08.16-.09.17-.17a.86.86,0,0,0,.13-.14,1.71,1.71,0,0,0,.13-.23l.06-.11V325a1.5,1.5,0,0,0,0-.3h0L182.48,248l23.88-15.65,63.27,79.48a1.36,1.36,0,0,0,.5.42h.05l.14.05,29.79,10.83h0l5.86,2.11h.76l.19-.05h0a1.48,1.48,0,0,0,1-1.4,1.32,1.32,0,0,0-.06-.39Zm-6.84-30.67,3.61,28.64-1.11.25-19.35-25.55Zm-58.86-81.76-10.32-13.29,30.6-19.89a1.47,1.47,0,0,0,0-2.48l-81-53L181,99.19l113.73,71.62ZM184,195.25h0l-4.65,2.94,1.45-77.25,58.7,38.36Zm111.43-27.46L180.32,95.27a1.52,1.52,0,0,0-2.26,1.29l-.13,21.7-1.55,82.4-16,10.36L164.2,65.4l128.28,83.73ZM141.83,73.7,161.25,65l-3.86,148.7a1.48,1.48,0,0,0,.76,1.32,1.41,1.41,0,0,0,.72.19,1.44,1.44,0,0,0,.8-.24l19-12.32h0l6.92-4.88,56.58-36.66,16.17,10.57-30,19.52a1.56,1.56,0,0,0-.67,1.28,1.47,1.47,0,0,0,.31.9L240.13,209l59,76.11-17.49,3.47-54-69a1.46,1.46,0,0,0-.17-.3l-1.22-1.58a1.15,1.15,0,0,0-.22-.22l-11.68-15.49a1.49,1.49,0,0,0-2-.35l-54.91,35.64h-.05a1.12,1.12,0,0,0-.2.18l-.06.07a1.33,1.33,0,0,0-.14.19v.09a1.8,1.8,0,0,0-.08.21v.09a1.31,1.31,0,0,0,0,.28h0l-2.43,76.49L135,323.5Zm35.24,248.79L157.3,315l2.36-74.4,19.86,7.6ZM156,333l-18.77-7.32,18.46-8.17,18.89,7.18Zm51.81-103.59a1.48,1.48,0,0,0-2-.32l-25,16.4-19.35-7.41,51.32-33.31,10.93,14.49.1.15v.06l55.36,70.82-8.74,17.85Zm73.41,63.5,19.34,25.55-.71,1.42-27-9.82Z" transform="translate(-0.51)"/></g></g></g></g></g></svg>
