<svg xmlns="http://www.w3.org/2000/svg" width="27.69" height="24.3" viewBox="0 0 27.69 24.3"><defs><style>.cls-1{fill:none;stroke:#000;stroke-linecap:round;stroke-linejoin:round;stroke-width:0.6px;}</style></defs><title>Asset 1</title><g id="Layer_2" data-name="Layer 2"><g id="Layer_1-2" data-name="Layer 1"><g id="loop_alt2"><path class="cls-1" d="M17.18,17.23l5.09-6.77,5.12,6.77H24v1.69A5.09,5.09,0,0,1,18.92,24H8.77a5.08,5.08,0,0,1-5.08-5.08V17.23H7.07v1.69a1.7,1.7,0,0,0,1.7,1.7H18.92a1.7,1.7,0,0,0,1.7-1.7V17.23Z"/><path class="cls-1" d="M10.5,7.07,5.42,13.84.3,7.07H3.69V5.38A5.08,5.08,0,0,1,8.77.3H18.92A5.09,5.09,0,0,1,24,5.38V7.07H20.62V5.38a1.7,1.7,0,0,0-1.7-1.69H8.77a1.7,1.7,0,0,0-1.7,1.69V7.07Z"/></g></g></g></svg>
