<svg xmlns="http://www.w3.org/2000/svg" width="1571" height="1571" viewBox="0 0 1571 1571"><defs><style>.cls-1{fill:none;stroke:#000;stroke-miterlimit:10;stroke-width:35px;}</style></defs><title>Asset 1</title><g id="Layer_2" data-name="Layer 2"><g id="Layer_1-2" data-name="Layer 1"><path class="cls-1" d="M721.5,1233.5V209.5q0-14-9-23t-23-9h-480q-14,0-23,9t-9,23v1024q0,14,9,23t23,9h480q14,0,23-9T721.5,1233.5Zm672-384v-640q0-14-9-23t-23-9h-480q-14,0-23,9t-9,23v640q0,14,9,23t23,9h480q14,0,23-9T1393.5,849.5Zm160-768v1408q0,26-19,45t-45,19H81.5q-26,0-45-19t-19-45V81.5q0-26,19-45t45-19h1408q26,0,45,19T1553.5,81.5Z"/></g></g></svg>
